<?xml version="1.0" encoding="utf-8"?>
<!-- Generator: Adobe Illustrator 26.3.1, SVG Export Plug-In . SVG Version: 6.00 Build 0)  -->
<svg version="1.1" id="Ebene_1" xmlns="http://www.w3.org/2000/svg" xmlns:xlink="http://www.w3.org/1999/xlink" x="0px" y="0px"
	 viewBox="0 0 3690.1499023 431.6749878" style="enable-background:new 0 0 3690.1499023 431.6749878;" xml:space="preserve">
<style type="text/css">
	.st0{fill:#05164D;}
</style>
<path class="st0" d="M2387.9858398,144.1629944c-60.3349609,0-89.4929199,23.0830078-91.9208984,66.4120026h59.5268555
	c0.8110352-11.3399963,7.2880859-19.8409882,32.394043-19.8409882c22.2729492,0,32.8029785,7.2879944,32.8029785,18.2220001
	c0,9.7179871-6.0749512,13.3619995-21.059082,14.9810028l-38.8737793,4.048996
	c-52.6420898,5.67099-76.5371094,27.5379944-76.5371094,67.2240143c0,36.8489685,22.6789551,65.1939697,70.8679199,65.1939697
	c32.7990723,0,52.2390137-10.5279846,69.2451172-31.5869751v25.5139771h55.8830566V220.2929993
	C2480.3149414,164.0079956,2447.513916,144.1629944,2387.9858398,144.1629944 M2422.0048828,274.9630127
	c0,22.2709961-21.0620117,38.8739929-53.4560547,38.8739929c-15.7919922,0-25.1079102-7.2900085-25.1079102-21.0589905
	c0-10.5280151,6.4799805-19.4370117,27.1308594-22.2700195l35.2351074-4.8609924
	c6.0720215-0.8080139,12.5510254-2.0240173,16.197998-3.2389832V274.9630127z M2191.1848145,226.3659973
	c51.8330078,6.8860016,77.7490234,23.0830078,77.7490234,65.6020203c0,42.9259644-30.3710938,68.4369812-94.7590332,68.4369812
	c-70.0549316,0-94.7580566-27.9400024-95.9699707-68.8429871h60.3339844
	c1.6230469,14.9849854,12.1489258,22.2749939,35.6359863,22.2749939c23.8920898,0,33.6120605-5.67099,33.6120605-17.0079956
	c0-10.5290222-8.0981445-15.3869934-29.1569824-18.2220154l-21.4641113-2.8369751
	c-44.947998-6.072998-70.8640137-23.4850159-70.8640137-63.9810181c0-38.875,28.7509766-67.6269836,89.0910645-67.6269836
	c55.8789062,0,85.8469238,22.2720032,88.6799316,66.4119873h-59.527832
	c-2.0241699-11.7409973-8.5041504-19.0319977-29.1520996-19.0319977c-20.25,0-27.9440918,6.8849945-27.9440918,15.7949982
	c0,8.9059906,4.861084,13.7659912,22.2709961,16.1970062L2191.1848145,226.3659973 M1982.0108643,144.1620178
	c53.0510254,0,80.1829834,23.4859924,80.1829834,90.7079926v119.4609833h-61.1499023V237.70401
	c0-27.1300049-11.743042-39.2770081-37.2550049-39.2770081c-23.0830078,0-36.848999,12.1470032-36.848999,39.2770081v116.6269836
	h-61.1470947V150.2369995h57.5020752v23.4880066C1931.7989502,157.9300232,1949.2099609,144.1620178,1982.0108643,144.1620178
	 M1748.2918701,144.1629944c-60.3380127,0-89.4949951,23.0830078-91.9239502,66.4120026h59.5269775
	c0.8100586-11.3399963,7.2900391-19.8439941,32.3969727-19.8439941c22.2719727,0,32.8000488,7.2910004,32.8000488,18.2220001
	c0,9.720993-6.0760498,13.3650055-21.0570068,14.9840088l-38.8740234,4.048996
	c-52.6450195,5.6679993-76.5369873,27.5370026-76.5369873,67.2240143c0,36.8489685,22.677002,65.1939697,70.8649902,65.1939697
	c32.8029785,0,52.2399902-10.5279846,69.2480469-31.5869751v25.5139771h55.8829346V220.2929993
	C1840.619873,164.0050049,1807.8199463,144.1629944,1748.2918701,144.1629944 M1782.3068848,274.960022
	c0,22.2729797-21.05896,38.8769836-53.4530029,38.8769836c-15.7949219,0-25.1080322-7.2900085-25.1080322-21.0589905
	c0-10.5280151,6.4801025-19.4370117,27.1320801-22.2700195l35.230957-4.8609924
	c6.0739746-0.8110046,12.5529785-2.0240173,16.197998-3.2389832V274.960022z M1547.4370117,144.1620178
	c51.8339844,0,78.9658203,23.4859924,78.9658203,90.7079926v119.4609833h-61.1499023V237.70401
	c0-27.1300049-11.7429199-39.2770081-37.2539062-39.2770081c-23.0830078,0-36.8500977,12.1470032-36.8500977,39.2770081v116.6269836
	h-61.1469727V71.2709961h61.5510254v98.8070068C1502.0830078,155.0950012,1518.685791,144.1620178,1547.4370117,144.1620178
	 M1365.4858398,150.2360229h46.5700684v49.8089752h-46.5700684v79.3700104
	c0,21.8680115,11.3400879,27.5369873,29.1569824,27.5369873c7.2890625,0,17.4130859-1.2139893,17.4130859-1.2139893v48.9979858
	c0,0-14.1730957,3.2380066-29.1560059,3.2380066c-48.9980469,0-78.5600586-22.2709961-78.5600586-71.6740112v-86.2549896
	h-30.7758789v-49.8089752h30.7758789V90.7090149h61.1459961V150.2360229z M1151.6757812,142.5429993
	c0-49.4029846,31.1831055-75.7269897,80.1811523-75.7269897c15.7949219,0,25.9179688,2.4299927,25.9179688,2.4299927v49.4030151
	c0,0-8.5039062-0.8070068-15.7949219-0.8070068c-19.032959,0-29.157959,6.4790039-29.157959,24.29599v8.0980225h44.9528809
	v49.8089752h-44.9528809v154.2859955h-61.1462402V200.0449982h-30.7749023v-49.8089752h30.7749023V142.5429993
	 M1043.5539551,150.2360229h61.1459961v204.0949707h-57.5009766v-23.4880066
	c-8.505127,15.7940063-25.9160156,29.5610046-57.9091797,29.5610046c-52.2358398,0-79.3679199-23.4869995-79.3679199-90.7080078
	V150.2360229h61.1469727v116.6239624c0,27.1329956,11.7451172,39.2800293,36.4460449,39.2800293
	c22.2719727,0,36.0390625-12.1470337,36.0390625-39.2800293V150.2360229z M774.2619629,297.2330017h121.8898926v57.0979919
	H708.6608887V70.8659973h65.6010742V297.2330017z M212.598877,0C95.0319824,0,0,95.0310059,0,212.5980072
	S95.0319824,425.196991,212.598877,425.196991c117.5671387,0,212.5981445-95.0319824,212.5981445-212.5989838
	S330.1660156,0,212.598877,0 M212.598877,412.4400024c-110.3388672,0-199.8430176-89.5039978-199.8430176-199.8419952
	S102.2600098,12.7550049,212.598877,12.7550049c110.3381348,0,199.842041,89.5050049,199.842041,199.8430023
	S322.9370117,412.4400024,212.598877,412.4400024 M295.032959,170.322998c-1.6159668,0-2.9760742,0.0420227-3.7409668,0.1270142
	c-0.8930664,1.6159973-2.2111816,3.7839966-4.1669922,6.803009c30.4399414,0,58.0749512,2.5079956,88.6418457,7.9919739
	l-8.6298828,8.3330078c-27.5910645-4.8889923-50.5070801-6.8439941-79.7141113-6.8439941
	c-4.2509766,0-5.144043,0-6.1640625,0.0419922c-1.0209961,1.5299988-3.3168945,4.5059967-5.6118164,7.2700043
	c2.5930176-0.1699982,7.6098633-0.2550049,14.5388184-0.2550049c24.0209961,0,46.4680176,1.7850037,70.8291016,5.6970062
	l-8.6311035,8.375c-18.5358887-2.8910065-41.1958008-4.548996-61.5178223-4.548996
	c-7.2270508,0-15.4321289,0.2549896-22.7871094,0.6799927c-1.657959,1.9129944-5.9938965,6.5899963-7.3120117,8.0350037
	c9.7351074-1.0200043,20.4489746-1.4880066,33.203125-1.4880066c18.1540527,0,35.5,1.1910095,51.9099121,3.6139984
	l-8.6308594,8.2900085c-11.6911621-1.4450073-25.8911133-2.2949982-38.4321289-2.2949982
	c-32.3530273,0-57.8620605,7.0139923-84.2209473,23.1269989c25.1259766,26.95401,66.2800293,44.0019836,106.157959,44.0019836
	h3.7409668l-13.9440918,13.4780273c-57.5219727-10.7990112-118.0617676-36.0950317-169.2058105-70.7450104
	c-49.1889648-33.2030029-66.4069824-43.0230103-104.7971191-59.9860077l-0.2548828-9.8639832l25.9758301,11.1389771
	l8.8430176-7.0149841l84.8151855,38.8579865l-5.5270996,4.4210052l-43.5339355-18.9179993l-4.2939453,3.3580017
	l22.6179199,12.6269989c19.0888672,10.6289978,33.6279297,15.3899994,47.0639648,15.3899994
	c29.3759766,0,55.7351074-20.8320007,72.7399902-57.4360046c12.7971191-1.6589966,26.4440918-2.4239807,42.8540039-2.4239807
	c33.6708984,0,66.3640137,3.2309875,103.394043,10.1609802l-9.0129395,8.7149963
	C359.1870117,174.2340088,320.0310059,170.322998,295.032959,170.322998 M2661.5258789,212.5980072
	c0-56.2880096,22.2709961-89.4919891,74.9160156-89.4919891c42.5158691,0,61.9558105,15.3880005,70.0559082,44.1359863h68.0280762
	c-9.3129883-60.3349915-49.4040527-102.447998-138.0839844-102.447998
	c-103.2641602,0-142.9521484,62.7640076-142.9521484,147.8040009s39.6879883,147.8079987,142.9521484,147.8079987
	c88.6799316,0,128.7709961-42.1190186,138.0839844-102.4559937h-68.0280762
	c-8.1000977,28.7569885-27.5400391,44.144989-70.0559082,44.144989
	C2683.796875,302.0950012,2661.5258789,268.8859863,2661.5258789,212.5980072 M3023.5458984,274.9589844
	c0,22.2750244-21.0561523,38.8800049-53.453125,38.8800049c-15.7958984,0-25.1069336-7.29599-25.1069336-21.0609741
	c0-10.5270081,6.4790039-19.4390259,27.1320801-22.2709961l35.2319336-4.8650208
	c6.0710449-0.803009,12.5478516-2.0190125,16.1960449-3.2359924V274.9589844z M3025.9777832,354.3309937h55.880127V220.2940063
	c0-56.2869873-32.8061523-76.1319885-92.3320312-76.1319885c-60.3320312,0-89.4880371,23.0799866-91.920166,66.4089813h59.5270996
	c0.809082-11.3359985,7.2880859-19.8409882,32.3930664-19.8409882c22.2700195,0,32.8039551,7.2919922,32.8039551,18.223999
	c0,9.7159882-6.0759277,13.3600006-21.0559082,14.9839935l-38.8762207,4.048996
	c-52.6437988,5.6670074-76.5358887,27.5350037-76.5358887,67.223999c0,36.8430176,22.6760254,65.1950073,70.8640137,65.1950073
	c32.8000488,0,52.2380371-10.5270081,69.2519531-31.5920105V354.3309937z M3206.9858398,202.0709991
	c8.0998535,0,16.5998535,0.4069977,25.9160156,1.6190033v-58.7200012c-2.434082-0.4029846-8.9121094-0.8079834-11.3400879-0.8079834
	c-30.7758789,0-47.7839355,13.7649841-55.8850098,29.5599976h-0.402832v-23.4830017h-57.5v204.09198h61.1437988V239.326004
	C3168.9177246,213.0070038,3185.1176758,202.0709991,3206.9858398,202.0709991 M3393.8447266,241.3500061
	c0,27.9449768-16.1948242,42.9200134-45.7629395,42.9200134c-29.9599609,0-45.7561035-14.9750366-45.7561035-42.9200134
	c0-27.9400024,15.7961426-42.9230042,45.7561035-42.9230042
	C3377.6499023,198.427002,3393.8447266,213.4100037,3393.8447266,241.3500061 M3453.369873,336.9150085V150.2390137h-57.5041504
	v16.1950073c-12.9558105-13.7680054-32.3979492-22.2720032-59.9279785-22.2720032
	c-65.5998535,0-95.1640625,37.6609802-95.1640625,96.7799835c0,59.9369965,29.564209,97.5970001,95.1640625,97.5970001
	c25.1040039,0,43.7319336-7.2879944,56.2880859-18.6289978v19.8450012c0,28.7479858-13.7719727,40.4920044-44.9521484,40.4920044
	c-29.560791,0-42.1118164-8.0970154-44.5397949-27.9410095h-59.5280762
	c4.0480957,53.4490051,36.0400391,79.368988,104.0678711,79.368988
	C3420.1657715,431.6749878,3453.369873,401.3029785,3453.369873,336.9150085 M3628.1938477,252.2819977
	c0,33.2040253-14.5800781,53.8600006-47.7841797,53.8600006c-33.2038574,0-47.7839355-20.6559753-47.7839355-53.8600006
	s14.5800781-53.8549957,47.7839355-53.8549957C3613.6137695,198.427002,3628.1938477,219.0780029,3628.1938477,252.2819977
	 M3690.1499023,252.2819977c0-65.1959991-31.9880371-108.1199799-109.7402344-108.1199799
	c-77.7478027,0-109.7438965,42.9239807-109.7438965,108.1199799s31.9960938,108.1240082,109.7438965,108.1240082
	C3658.1618652,360.4060059,3690.1499023,317.4779968,3690.1499023,252.2819977"/>
</svg>
